# This file uses centimeters as units for non-parametric coordinates.

mtllib Carrot_01.mtl
g default
v 37.816875 0.000000 4.127075
v -57.384037 8.433380 12.560455
v -57.384037 11.926605 4.127075
v -57.384037 8.433380 -4.306306
v -57.384037 0.000000 -7.799531
v -57.384037 -8.433380 -4.306306
v -57.384037 -11.926605 4.127075
v -57.384037 -8.433380 12.560455
v -57.384037 0.000000 16.053680
v -64.819153 7.112152 11.239227
v -64.819153 10.058105 4.127075
v -64.819153 7.112152 -2.985078
v -64.819153 0.000000 -5.931031
v -64.819153 -7.112152 -2.985078
v -64.819153 -10.058105 4.127075
v -64.819153 -7.112152 11.239227
v -64.819153 0.000000 14.185180
v -67.074387 3.526413 7.653472
v -67.074387 4.987106 4.127075
v -67.074387 3.526413 0.600677
v -67.074387 0.000000 -0.860017
v -67.074387 -3.526413 0.600677
v -67.074387 -4.987106 4.127075
v -67.074387 -3.526413 7.653472
v -67.074387 0.000000 9.114166
v 8.345417 -3.369186 7.499206
v 8.306408 -4.766571 4.137420
v 7.698967 -3.426437 0.718353
v 7.367060 -0.007401 -0.739411
v 7.175907 3.457977 0.672027
v 7.769035 4.819077 4.137420
v 7.764080 3.405869 7.550720
v 8.117336 -0.007401 8.920257
v -67.957611 3.526413 7.653472
v -67.957611 4.987106 4.127075
v -67.957611 3.526413 0.600677
v -67.957611 0.000000 -0.860017
v -67.957611 -3.526413 0.600677
v -67.957611 -4.987106 4.127075
v -67.957611 -3.526413 7.653472
v -67.957611 0.000000 9.114166
v -67.957611 -0.000000 4.127075
vt 0.500000 0.312500
vt 0.375000 0.688440
vt 0.406250 0.688440
vt 0.437500 0.688440
vt 0.468750 0.688440
vt 0.500000 0.688440
vt 0.531250 0.688440
vt 0.562500 0.688440
vt 0.593750 0.688440
vt 0.625000 0.688440
vt 0.610485 0.733265
vt 0.500000 0.687500
vt 0.389515 0.733265
vt 0.343750 0.843750
vt 0.389515 0.954235
vt 0.500000 1.000000
vt 0.610485 0.954235
vt 0.656250 0.843750
vt 0.610485 0.954235
vt 0.500000 1.000000
vt 0.389515 0.954235
vt 0.343750 0.843750
vt 0.389515 0.733265
vt 0.500000 0.687500
vt 0.610485 0.733265
vt 0.656250 0.843750
vt 0.610485 0.954235
vt 0.500000 1.000000
vt 0.389515 0.954235
vt 0.343750 0.843750
vt 0.389515 0.733265
vt 0.500000 0.687500
vt 0.610485 0.733265
vt 0.656250 0.843750
vt 0.545182 0.584269
vt 0.522599 0.584370
vt 0.500000 0.585946
vt 0.477198 0.586806
vt 0.454314 0.587302
vt 0.431855 0.585764
vt 0.590864 0.585777
vt 0.409135 0.585777
vt 0.567920 0.584861
vt 0.000000 0.000000
vt 1.000000 0.000000
vt 1.000000 1.000000
vt 0.000000 1.000000
vt 0.000000 0.000000
vt 1.000000 0.000000
vt 1.000000 1.000000
vt 0.000000 1.000000
vt 0.000000 0.000000
vt 1.000000 0.000000
vt 1.000000 1.000000
vt 0.000000 1.000000
vt 0.000000 0.000000
vt 1.000000 0.000000
vt 1.000000 1.000000
vt 0.000000 1.000000
vt 0.000000 0.000000
vt 1.000000 0.000000
vt 1.000000 1.000000
vt 0.000000 1.000000
vt 0.000000 0.000000
vt 1.000000 0.000000
vt 1.000000 1.000000
vt 0.000000 1.000000
vt 0.000000 0.000000
vt 1.000000 0.000000
vt 1.000000 1.000000
vt 0.000000 1.000000
vt 0.000000 0.000000
vt 1.000000 0.000000
vt 1.000000 1.000000
vt 0.000000 1.000000
vt 0.000000 0.000000
vt 1.000000 0.000000
vt 0.500000 1.000000
vt 0.000000 0.000000
vt 1.000000 0.000000
vt 0.500000 1.000000
vt 0.000000 0.000000
vt 1.000000 0.000000
vt 0.500000 1.000000
vt 0.000000 0.000000
vt 1.000000 0.000000
vt 0.500000 1.000000
vt 0.000000 0.000000
vt 1.000000 0.000000
vt 0.500000 1.000000
vt 0.000000 0.000000
vt 1.000000 0.000000
vt 0.500000 1.000000
vt 0.000000 0.000000
vt 1.000000 0.000000
vt 0.500000 1.000000
vt 0.000000 0.000000
vt 1.000000 0.000000
vt 0.500000 1.000000
vn 0.105409 0.918733 0.380551
vn 0.105391 0.918735 0.380552
vn 0.146697 0.913869 0.378582
vn 0.104601 0.918868 -0.380448
vn 0.106492 0.918592 -0.380588
vn 0.146138 0.912021 -0.383226
vn 0.105802 0.380534 -0.918695
vn 0.105191 0.380536 -0.918764
vn 0.145884 0.380065 -0.913383
vn 0.105990 -0.380510 -0.918683
vn 0.104927 -0.380622 -0.918759
vn 0.146330 -0.375930 -0.915022
vn 0.106400 -0.918598 -0.380602
vn 0.104446 -0.918886 -0.380446
vn 0.147132 -0.911743 -0.383506
vn 0.105334 -0.918739 0.380557
vn 0.105208 -0.918751 0.380563
vn 0.147743 -0.913877 0.378154
vn 0.104895 -0.380601 0.918771
vn 0.105637 -0.380538 0.918712
vn 0.147691 -0.376563 0.914542
vn 0.147191 0.381409 0.912613
vn 0.104762 0.380516 0.918821
vn 0.105906 0.380549 0.918677
vn 0.058554 0.922296 0.382022
vn 0.058545 0.922297 0.382022
vn -0.226162 0.899941 0.372769
vn -0.226162 0.899941 0.372769
vn 0.058514 0.922527 -0.381471
vn 0.058510 0.922527 -0.381471
vn -0.226162 0.899941 -0.372769
vn -0.226162 0.899941 -0.372769
vn 0.058433 0.381849 -0.922376
vn 0.058435 0.381849 -0.922375
vn -0.226162 0.372769 -0.899941
vn -0.226162 0.372769 -0.899941
vn 0.058483 -0.382340 -0.922169
vn 0.058490 -0.382339 -0.922169
vn -0.226162 -0.372769 -0.899941
vn -0.226162 -0.372769 -0.899941
vn 0.058583 -0.922531 -0.381451
vn 0.058591 -0.922530 -0.381451
vn -0.226162 -0.899941 -0.372769
vn -0.226162 -0.899941 -0.372769
vn 0.058635 -0.922274 0.382063
vn 0.058640 -0.922274 0.382062
vn -0.226162 -0.899941 0.372769
vn -0.226162 -0.899941 0.372769
vn 0.058572 -0.382243 0.922203
vn 0.058570 -0.382244 0.922204
vn -0.226162 -0.372769 0.899941
vn -0.226162 -0.372769 0.899941
vn 0.058509 0.381690 0.922437
vn 0.058502 0.381690 0.922437
vn -0.226162 0.372769 0.899941
vn -0.226162 0.372769 0.899941
vn -0.901040 0.400720 0.165984
vn -0.901040 0.400720 0.165984
vn -0.901040 0.400720 0.165984
vn -0.901040 0.400720 0.165984
vn -0.901040 0.400720 -0.165984
vn -0.901040 0.400720 -0.165984
vn -0.901040 0.400720 -0.165984
vn -0.901040 0.400720 -0.165984
vn -0.901040 0.165984 -0.400720
vn -0.901040 0.165984 -0.400720
vn -0.901040 0.165984 -0.400720
vn -0.901040 0.165984 -0.400720
vn -0.901040 -0.165984 -0.400720
vn -0.901040 -0.165984 -0.400720
vn -0.901040 -0.165984 -0.400720
vn -0.901040 -0.165984 -0.400720
vn -0.901040 -0.400720 -0.165984
vn -0.901040 -0.400720 -0.165984
vn -0.901040 -0.400720 -0.165984
vn -0.901040 -0.400720 -0.165984
vn -0.901040 -0.400720 0.165984
vn -0.901040 -0.400720 0.165984
vn -0.901040 -0.400720 0.165984
vn -0.901040 -0.400720 0.165984
vn -0.901040 -0.165984 0.400720
vn -0.901040 -0.165984 0.400720
vn -0.901040 -0.165984 0.400720
vn -0.901040 -0.165984 0.400720
vn -0.901040 0.165984 0.400720
vn -0.901040 0.165984 0.400720
vn -0.901040 0.165984 0.400720
vn -0.901040 0.165984 0.400720
vn 0.000000 0.923879 0.382685
vn 0.000000 0.923879 0.382685
vn 0.000000 0.923879 0.382685
vn 0.000000 0.923879 0.382685
vn -0.000000 0.923879 -0.382685
vn -0.000000 0.923879 -0.382685
vn -0.000000 0.923879 -0.382685
vn -0.000000 0.923879 -0.382685
vn -0.000000 0.382684 -0.923880
vn -0.000000 0.382684 -0.923880
vn -0.000000 0.382684 -0.923880
vn -0.000000 0.382684 -0.923880
vn -0.000000 -0.382684 -0.923880
vn -0.000000 -0.382684 -0.923880
vn -0.000000 -0.382684 -0.923880
vn -0.000000 -0.382684 -0.923880
vn -0.000000 -0.923879 -0.382685
vn -0.000000 -0.923879 -0.382685
vn -0.000000 -0.923879 -0.382685
vn -0.000000 -0.923879 -0.382685
vn 0.000000 -0.923879 0.382685
vn 0.000000 -0.923879 0.382685
vn 0.000000 -0.923879 0.382685
vn 0.000000 -0.923879 0.382685
vn 0.000000 -0.382684 0.923880
vn 0.000000 -0.382684 0.923880
vn 0.000000 -0.382684 0.923880
vn 0.000000 -0.382684 0.923880
vn 0.000000 0.382684 0.923880
vn 0.000000 0.382684 0.923880
vn 0.000000 0.382684 0.923880
vn 0.000000 0.382684 0.923880
vn -1.000000 0.000000 0.000000
vn -1.000000 0.000000 0.000000
vn -1.000000 0.000000 0.000000
vn -1.000000 0.000000 0.000000
vn -1.000000 0.000000 0.000000
vn -1.000000 0.000000 0.000000
vn -1.000000 0.000000 0.000000
vn -1.000000 0.000000 0.000000
vn -1.000000 0.000000 0.000000
vn -1.000000 0.000000 -0.000000
vn -1.000000 0.000000 -0.000000
vn -1.000000 0.000000 -0.000000
vn -1.000000 0.000000 0.000000
vn -1.000000 0.000000 0.000000
vn -1.000000 0.000000 0.000000
vn -1.000000 0.000000 0.000000
vn -1.000000 0.000000 0.000000
vn -1.000000 0.000000 0.000000
vn -1.000000 0.000000 0.000000
vn -1.000000 0.000000 0.000000
vn -1.000000 0.000000 0.000000
vn -1.000000 0.000000 -0.000000
vn -1.000000 0.000000 -0.000000
vn -1.000000 0.000000 -0.000000
s 1
g Google:pCylinder1
usemtl blinn4SG
f 31/40/1 32/42/2 1/1/3
s 2
f 30/39/4 31/40/5 1/1/6
s 3
f 29/38/7 30/39/8 1/1/9
s 4
f 28/37/10 29/38/11 1/1/12
s 5
f 27/36/13 28/37/14 1/1/15
s 6
f 26/35/16 27/36/17 1/1/18
s 7
f 33/43/19 26/35/20 1/1/21
s 8
f 1/1/22 32/41/23 33/43/24
s 1
f 2/17/25 3/16/26 11/20/27 10/19/28
s 2
f 3/16/29 4/15/30 12/21/31 11/20/32
s 3
f 4/15/33 5/14/34 13/22/35 12/21/36
s 4
f 5/14/37 6/13/38 14/23/39 13/22/40
s 5
f 6/13/41 7/12/42 15/24/43 14/23/44
s 6
f 7/12/45 8/11/46 16/25/47 15/24/48
s 7
f 8/11/49 9/18/50 17/26/51 16/25/52
s 8
f 9/18/53 2/17/54 10/19/55 17/26/56
s off
f 10/19/57 11/20/58 19/28/59 18/27/60
f 11/20/61 12/21/62 20/29/63 19/28/64
f 12/21/65 13/22/66 21/30/67 20/29/68
f 13/22/69 14/23/70 22/31/71 21/30/72
f 14/23/73 15/24/74 23/32/75 22/31/76
f 15/24/77 16/25/78 24/33/79 23/32/80
f 16/25/81 17/26/82 25/34/83 24/33/84
f 17/26/85 10/19/86 18/27/87 25/34/88
s 6
f 27/36/17 26/35/16 8/8/46 7/7/45
s 5
f 28/37/14 27/36/13 7/7/42 6/6/41
s 4
f 29/38/11 28/37/10 6/6/38 5/5/37
s 3
f 30/39/8 29/38/7 5/5/34 4/4/33
s 2
f 31/40/5 30/39/4 4/4/30 3/3/29
s 1
f 32/42/2 31/40/1 3/3/26 2/2/25
s 8
f 33/43/24 32/41/23 2/10/54 9/9/53
s 7
f 26/35/20 33/43/19 9/9/50 8/8/49
s off
usemtl blinn10SG
f 18/44/89 19/45/90 35/46/91 34/47/92
f 19/48/93 20/49/94 36/50/95 35/51/96
f 20/52/97 21/53/98 37/54/99 36/55/100
f 21/56/101 22/57/102 38/58/103 37/59/104
f 22/60/105 23/61/106 39/62/107 38/63/108
f 23/64/109 24/65/110 40/66/111 39/67/112
f 24/68/113 25/69/114 41/70/115 40/71/116
f 25/72/117 18/73/118 34/74/119 41/75/120
f 34/76/121 35/77/122 42/78/123
f 35/79/124 36/80/125 42/81/126
f 36/82/127 37/83/128 42/84/129
f 37/85/130 38/86/131 42/87/132
f 38/88/133 39/89/134 42/90/135
f 39/91/136 40/92/137 42/93/138
f 40/94/139 41/95/140 42/96/141
f 41/97/142 34/98/143 42/99/144
